# xmcd
#
# Track frame offsets: 
#        150
#        14528
#        24558
#        44560
#        57010
#        66860
#        79948
#        97495
#        109365
#        124508
#        148528
#        176085
#        192150
#        207565
#        225358
#        245538
#        256590
#        284323
#        300788
#        319928
#
# Disc length: 4465 seconds
#
# Revision: 3
# Processed by: cddbd v1.5.2PL0 Copyright (c) Steve Scherf et al.
# Submitted via: ExactAudioCopy v1.0b3
#
DISCID=1d116f14
DTITLE=Campbell, Glen - Greatest Hits - Live!
DYEAR=1900
DGENRE=Country
TTITLE0=Rhinestone Cowboy
TTITLE1=Gentle On My Mind
TTITLE2=Medley - Wichita Lineman - Galveston - Country Boy
TTITLE3=By The Time I Get To Phoenix
TTITLE4=Dreams Of An Everyday Housewife
TTITLE5=Heartache Number Two
TTITLE6=Please Come To Boston
TTITLE7=It's Only Make Believe
TTITLE8=Crying
TTITLE9=Blue Grass Medley
TTITLE10=Milk Cow Blues
TTITLE11=Rollin' (In My Sweet Baby's Arms)
TTITLE12=I'm So Lonesome I Could Cry
TTITLE13=Southern Nights
TTITLE14=Amazing Grace
TTITLE15=Try A Little Tenderness
TTITLE16=Mull Of Kintyre
TTITLE17=In Your Loving Arms Again
TTITLE18=It's Your World Girls And Boys
TTITLE19=Trials And Tribulations
EXTD=
EXTT0=
EXTT1=
EXTT2=
EXTT3=
EXTT4=
EXTT5=
EXTT6=
EXTT7=
EXTT8=
EXTT9=
EXTT10=
EXTT11=
EXTT12=
EXTT13=
EXTT14=
EXTT15=
EXTT16=
EXTT17=
EXTT18=
EXTT19=
PLAYORDER=
